<svg width="24" height="24" viewBox="0 0 24 24" fill="none" xmlns="http://www.w3.org/2000/svg">
<path d="M6.74935 2.9945V5.24472M17.2497 2.99316V5.24338M2.9978 18.7434V7.49209C2.9978 6.24938 4.00521 5.24197 5.2479 5.24197H18.7477C19.9904 5.24197 20.9978 6.24938 20.9978 7.49209V18.7434M2.9978 18.7434C2.9978 19.9861 4.00521 20.9935 5.2479 20.9935H18.7477C19.9904 20.9935 20.9978 19.9861 20.9978 18.7434M2.9978 18.7434V11.2429C2.9978 10.0002 4.00521 8.99282 5.2479 8.99282H18.7477C19.9904 8.99282 20.9978 10.0002 20.9978 11.2429V18.7434M14.2478 12.7429H16.4978M7.49777 14.9932H11.9978M11.9999 12.7429H12.0055V12.7486H11.9999V12.7429ZM11.9992 17.2437H12.0048V17.2493H11.9992V17.2437ZM9.74883 17.2444H9.75445V17.25H9.74883V17.2444ZM7.49849 17.2437H7.50411V17.2493H7.49849V17.2437ZM14.2488 14.9969H14.2544V15.0025H14.2488V14.9969ZM14.2496 17.2444H14.2552V17.25H14.2496V17.2444ZM16.4999 14.9955H16.5055V15.0011H16.4999V14.9955Z" stroke="black" stroke-width="1.5" stroke-linecap="round" stroke-linejoin="round"/>
</svg>
