<svg width="13" height="14" viewBox="0 0 13 14" fill="none" xmlns="http://www.w3.org/2000/svg">
<g clip-path="url(#clip0_9_909)">
<path d="M2.625 0.875V1.75H1.3125C0.587891 1.75 0 2.33789 0 3.0625V4.375H12.25V3.0625C12.25 2.33789 11.6621 1.75 10.9375 1.75H9.625V0.875C9.625 0.391016 9.23398 0 8.75 0C8.26602 0 7.875 0.391016 7.875 0.875V1.75H4.375V0.875C4.375 0.391016 3.98398 0 3.5 0C3.01602 0 2.625 0.391016 2.625 0.875ZM12.25 5.25H0V12.6875C0 13.4121 0.587891 14 1.3125 14H10.9375C11.6621 14 12.25 13.4121 12.25 12.6875V5.25Z" fill="white"/>
</g>
<defs>
<clipPath id="clip0_9_909">
<path d="M0 0H12.25V14H0V0Z" fill="white"/>
</clipPath>
</defs>
</svg>
