<svg width="20" height="20" viewBox="0 0 20 20" fill="none" xmlns="http://www.w3.org/2000/svg">
<path d="M18.6429 11.1429L17.5082 10.0082C17.3372 9.83718 17.1949 9.63973 17.0867 9.42342L16.0067 7.2633C15.8804 7.01078 15.5438 6.95616 15.3442 7.1558C15.1318 7.36824 14.8208 7.44881 14.532 7.36627L13.2591 7.00259C12.7757 6.86447 12.2739 7.15424 12.152 7.642C12.0608 8.00661 12.2087 8.38916 12.5215 8.59764L13.1082 8.9888C13.6989 9.38259 13.7816 10.2184 13.2797 10.7203L13.0795 10.9205C12.8685 11.1315 12.75 11.4176 12.75 11.716V12.1268C12.75 12.5346 12.6392 12.9347 12.4294 13.2844L11.1147 15.4754C10.7334 16.1111 10.0464 16.5 9.30516 16.5C8.72241 16.5 8.25 16.0276 8.25 15.4448V14.2733C8.25 13.3533 7.68986 12.5259 6.83563 12.1843L6.18149 11.9226C5.19975 11.5299 4.6239 10.5066 4.79773 9.46362L4.80477 9.42139C4.85117 9.14295 4.94956 8.87573 5.0948 8.63367L5.18421 8.48466C5.67343 7.66928 6.62241 7.24948 7.55483 7.43597L8.73267 7.67153C9.30736 7.78647 9.87401 7.44096 10.035 6.87744L10.2435 6.14774C10.3922 5.62721 10.1491 5.07456 9.6649 4.83245L9 4.5L8.90901 4.59099C8.48705 5.01295 7.91476 5.25 7.31802 5.25H7.13709C6.88924 5.25 6.65095 5.34905 6.4757 5.5243C6.19222 5.80778 5.75814 5.87907 5.39958 5.69979C4.91433 5.45716 4.73833 4.85278 5.01746 4.38757L6.42936 2.0344C6.57024 1.79961 6.66649 1.54207 6.71453 1.27474M18.6429 11.1429C18.7134 10.6889 18.75 10.2237 18.75 9.75C18.75 4.77944 14.7206 0.75 9.75 0.75C8.68483 0.75 7.66287 0.935044 6.71453 1.27474M18.6429 11.1429C17.9734 15.452 14.2468 18.75 9.75 18.75C4.77944 18.75 0.75 14.7206 0.75 9.75C0.75 5.84461 3.23749 2.52021 6.71453 1.27474" stroke="#333333" stroke-width="1.5" stroke-linecap="round" stroke-linejoin="round"/>
</svg>
