<svg width="17" height="21" viewBox="0 0 17 21" fill="none" xmlns="http://www.w3.org/2000/svg">
<path d="M1.98 3.9891e-06C1.13657 3.9891e-06 0.421714 0.632575 0.334286 1.47858C0.207428 2.68543 0 4.87029 0 6.21429C0 7.48286 0.581143 8.616 1.48886 9.36172C1.78714 9.60686 1.92857 9.876 1.92857 10.1023V10.6697L1.92771 10.71C1.89257 11.2234 1.5 16.956 1.5 18C1.5 18.3377 1.56651 18.6721 1.69574 18.984C1.82496 19.296 2.01437 19.5795 2.25315 19.8183C2.49193 20.0571 2.77541 20.2465 3.08739 20.3757C3.39937 20.5049 3.73374 20.5714 4.07143 20.5714C4.40911 20.5714 4.74349 20.5049 5.05547 20.3757C5.36745 20.2465 5.65092 20.0571 5.8897 19.8183C6.12848 19.5795 6.31789 19.296 6.44712 18.984C6.57635 18.6721 6.64286 18.3377 6.64286 18C6.64286 16.956 6.25114 11.2234 6.21514 10.71L6.21429 10.6697V10.1023C6.21429 9.87515 6.35571 9.60686 6.654 9.36172C7.1199 8.98022 7.49518 8.49992 7.75268 7.95558C8.01017 7.41124 8.14345 6.81646 8.14286 6.21429C8.14286 4.87029 7.93543 2.68543 7.80857 1.47858C7.76574 1.07221 7.5738 0.696141 7.26983 0.423052C6.96587 0.149962 6.57148 -0.000762851 6.16286 3.9891e-06C5.77114 3.9891e-06 5.41029 0.135433 5.12571 0.362576C4.8245 0.127626 4.45344 1.72662e-05 4.07143 3.9891e-06C3.68942 1.72662e-05 3.31836 0.127626 3.01714 0.362576C2.72283 0.127092 2.35692 -0.00082344 1.98 3.9891e-06ZM3.64286 1.71429C3.64286 1.60063 3.68801 1.49162 3.76838 1.41124C3.84876 1.33087 3.95776 1.28572 4.07143 1.28572C4.18509 1.28572 4.2941 1.33087 4.37447 1.41124C4.45485 1.49162 4.5 1.60063 4.5 1.71429V6.21429C4.5 6.38479 4.56773 6.5483 4.68829 6.66886C4.80885 6.78942 4.97236 6.85715 5.14286 6.85715C5.31335 6.85715 5.47687 6.78942 5.59743 6.66886C5.71798 6.5483 5.78571 6.38479 5.78571 6.21429V1.66286C5.78571 1.56284 5.82545 1.46691 5.89618 1.39618C5.9669 1.32545 6.06283 1.28572 6.16286 1.28572C6.35571 1.28572 6.51171 1.42886 6.53057 1.61229C6.65743 2.82943 6.85714 4.94829 6.85714 6.21429C6.85775 6.62645 6.76662 7.03359 6.59034 7.40615C6.41406 7.77872 6.15707 8.10738 5.838 8.36829C5.37686 8.74715 4.92857 9.34543 4.92857 10.1023V10.6697C4.92857 10.7126 4.92943 10.752 4.93286 10.7983C4.97057 11.3511 5.35714 17.0134 5.35714 18C5.35714 18.341 5.22168 18.668 4.98057 18.9091C4.73945 19.1503 4.41242 19.2857 4.07143 19.2857C3.73044 19.2857 3.40341 19.1503 3.16229 18.9091C2.92117 18.668 2.78571 18.341 2.78571 18C2.78571 17.0143 3.17143 11.3511 3.21 10.7983C3.21343 10.752 3.21429 10.7126 3.21429 10.6697V10.1023C3.21429 9.34458 2.766 8.74715 2.30486 8.36829C1.98579 8.10738 1.72879 7.77872 1.55252 7.40615C1.37624 7.03359 1.2851 6.62645 1.28571 6.21429C1.28571 4.94829 1.48543 2.83029 1.61229 1.61229C1.62207 1.52191 1.66515 1.43841 1.73312 1.37804C1.80109 1.31767 1.8891 1.28476 1.98 1.28572C2.08002 1.28572 2.17595 1.32545 2.24668 1.39618C2.31741 1.46691 2.35714 1.56284 2.35714 1.66286V6.21429C2.35714 6.38479 2.42487 6.5483 2.54543 6.66886C2.66599 6.78942 2.8295 6.85715 3 6.85715C3.1705 6.85715 3.33401 6.78942 3.45457 6.66886C3.57513 6.5483 3.64286 6.38479 3.64286 6.21429V1.71429ZM15.2143 1.29086V9.64286C15.2143 9.94286 15.2949 11.3546 15.384 12.9086L15.3891 12.9986C15.5091 15.0866 15.6429 17.4257 15.6429 18C15.6429 18.341 15.5074 18.668 15.2663 18.9091C15.0252 19.1503 14.6981 19.2857 14.3571 19.2857C14.0162 19.2857 13.6891 19.1503 13.448 18.9091C13.2069 18.668 13.0714 18.341 13.0714 18C13.0714 17.49 13.1769 15.426 13.2849 13.4571C13.3481 12.3033 13.4132 11.1496 13.4803 9.996L13.4991 9.68058L13.5 9.64286C13.5 9.47237 13.4323 9.30885 13.3117 9.18829C13.1912 9.06773 13.0276 9 12.8571 9H11.1429C11.086 9 11.0315 8.97743 10.9913 8.93724C10.9511 8.89705 10.9286 8.84255 10.9286 8.78572V5.78572C10.9286 4.62935 11.3737 3.51736 12.1717 2.68045C12.9697 1.84353 14.0592 1.34593 15.2143 1.29086ZM12.1757 10.2857L12.1483 10.7623C12.108 11.4626 12.054 12.408 12.0009 13.3869C11.8946 15.33 11.7857 17.4446 11.7857 18C11.7857 18.3377 11.8522 18.6721 11.9815 18.984C12.1107 19.296 12.3001 19.5795 12.5389 19.8183C12.7776 20.0571 13.0611 20.2465 13.3731 20.3757C13.6851 20.5049 14.0195 20.5714 14.3571 20.5714C14.6948 20.5714 15.0292 20.5049 15.3412 20.3757C15.6532 20.2465 15.9366 20.0571 16.1754 19.8183C16.4142 19.5795 16.6036 19.296 16.7328 18.984C16.8621 18.6721 16.9286 18.3377 16.9286 18C16.9286 17.382 16.7931 15.0223 16.6766 12.9814L16.6731 12.9249C16.5797 11.2971 16.5 9.9 16.5 9.64286V0.642861C16.5 0.472365 16.4323 0.308852 16.3117 0.188292C16.1912 0.0677333 16.0276 3.9891e-06 15.8571 3.9891e-06H15.4286C13.8941 3.9891e-06 12.4225 0.609569 11.3375 1.6946C10.2524 2.77963 9.64286 4.25125 9.64286 5.78572V8.78572C9.64286 9.61372 10.3149 10.2857 11.1429 10.2857H12.1757Z" fill="#333333"/>
</svg>
