<svg width="28" height="27" viewBox="0 0 28 27" fill="none" xmlns="http://www.w3.org/2000/svg">
<path d="M13.2929 2.29289C13.6834 1.90237 14.3166 1.90237 14.7071 2.29289L26.2929 13.8787C26.6834 14.2692 27.3166 14.2692 27.7071 13.8787C28.0976 13.4882 28.0976 12.855 27.7071 12.4645L16.1213 0.878679C14.9497 -0.292895 13.0503 -0.292892 11.8787 0.87868L0.292893 12.4645C-0.0976311 12.855 -0.0976311 13.4882 0.292893 13.8787C0.683418 14.2692 1.31658 14.2692 1.70711 13.8787L13.2929 2.29289Z" fill="white"/>
<path d="M14 4.41422L24.8787 15.2929C24.9183 15.3325 24.9588 15.3708 25 15.4078V23.6716C25 25.0523 23.8807 26.1716 22.5 26.1716H18C17.4477 26.1716 17 25.7239 17 25.1716V19.1716C17 18.6193 16.5523 18.1716 16 18.1716H12C11.4477 18.1716 11 18.6193 11 19.1716V25.1716C11 25.7239 10.5523 26.1716 10 26.1716H5.5C4.11929 26.1716 3 25.0523 3 23.6716V15.4078C3.04124 15.3708 3.08169 15.3325 3.12132 15.2929L14 4.41422Z" fill="white"/>
</svg>
