<svg width="21" height="21" viewBox="0 0 21 21" fill="none" xmlns="http://www.w3.org/2000/svg">
<path d="M10.5047 5.11758C7.52344 5.11758 5.11876 7.52227 5.11876 10.5035C5.11876 13.4848 7.52344 15.8895 10.5047 15.8895C13.4859 15.8895 15.8906 13.4848 15.8906 10.5035C15.8906 7.52227 13.4859 5.11758 10.5047 5.11758ZM10.5047 14.0051C8.57813 14.0051 7.00313 12.4348 7.00313 10.5035C7.00313 8.57227 8.57344 7.00195 10.5047 7.00195C12.4359 7.00195 14.0063 8.57227 14.0063 10.5035C14.0063 12.4348 12.4313 14.0051 10.5047 14.0051ZM17.3672 4.89727C17.3672 5.5957 16.8047 6.15352 16.1109 6.15352C15.4125 6.15352 14.8547 5.59102 14.8547 4.89727C14.8547 4.20352 15.4172 3.64102 16.1109 3.64102C16.8047 3.64102 17.3672 4.20352 17.3672 4.89727ZM20.9344 6.17227C20.8547 4.48945 20.4703 2.99883 19.2375 1.7707C18.0094 0.542578 16.5188 0.158203 14.8359 0.0738281C13.1016 -0.0246094 7.90313 -0.0246094 6.16876 0.0738281C4.49063 0.153516 3.00001 0.537891 1.76719 1.76602C0.534381 2.99414 0.154694 4.48477 0.0703186 6.16758C-0.0281189 7.90195 -0.0281189 13.1004 0.0703186 14.8348C0.150006 16.5176 0.534381 18.0082 1.76719 19.2363C3.00001 20.4645 4.48594 20.8488 6.16876 20.9332C7.90313 21.0316 13.1016 21.0316 14.8359 20.9332C16.5188 20.8535 18.0094 20.4691 19.2375 19.2363C20.4656 18.0082 20.85 16.5176 20.9344 14.8348C21.0328 13.1004 21.0328 7.90664 20.9344 6.17227ZM18.6938 16.6957C18.3281 17.6145 17.6203 18.3223 16.6969 18.6926C15.3141 19.241 12.0328 19.1145 10.5047 19.1145C8.97657 19.1145 5.69063 19.2363 4.31251 18.6926C3.39376 18.327 2.68594 17.6191 2.31563 16.6957C1.76719 15.3129 1.89376 12.0316 1.89376 10.5035C1.89376 8.97539 1.77188 5.68945 2.31563 4.31133C2.68126 3.39258 3.38907 2.68477 4.31251 2.31445C5.69532 1.76602 8.97657 1.89258 10.5047 1.89258C12.0328 1.89258 15.3188 1.7707 16.6969 2.31445C17.6156 2.68008 18.3234 3.38789 18.6938 4.31133C19.2422 5.69414 19.1156 8.97539 19.1156 10.5035C19.1156 12.0316 19.2422 15.3176 18.6938 16.6957Z" fill="#9CA3AF"/>
</svg>
