<svg width="21" height="24" viewBox="0 0 21 24" fill="none" xmlns="http://www.w3.org/2000/svg">
<path d="M20.9939 9.83953C18.9302 9.84447 16.9172 9.20088 15.2391 7.99969V16.3772C15.2385 17.9288 14.7642 19.4432 13.8797 20.718C12.9952 21.9928 11.7426 22.9672 10.2893 23.5109C8.8361 24.0545 7.25152 24.1416 5.74748 23.7604C4.24343 23.3791 2.89162 22.5478 1.87279 21.3776C0.853957 20.2074 0.216677 18.754 0.0461589 17.2118C-0.124359 15.6696 0.180014 14.112 0.918578 12.7475C1.65714 11.3829 2.79469 10.2764 4.17913 9.5758C5.56356 8.87521 7.12888 8.61398 8.66579 8.82703V13.0406C7.9625 12.8194 7.20729 12.8261 6.50801 13.0597C5.80873 13.2933 5.20114 13.7418 4.77202 14.3413C4.34289 14.9408 4.11416 15.6606 4.1185 16.3979C4.12285 17.1351 4.36003 17.8521 4.7962 18.4466C5.23236 19.041 5.84518 19.4824 6.54717 19.7077C7.24915 19.933 8.00438 19.9308 8.70502 19.7013C9.40566 19.4718 10.0159 19.0268 10.4485 18.4298C10.8811 17.8329 11.1141 17.1145 11.1141 16.3772V0H15.2391C15.2362 0.348347 15.2654 0.696219 15.3263 1.03922C15.4696 1.80491 15.7676 2.53332 16.2021 3.17988C16.6366 3.82643 17.1985 4.37756 17.8533 4.79953C18.7849 5.41551 19.8771 5.74383 20.9939 5.74359V9.83953Z" fill="#9CA3AF"/>
</svg>
