<svg width="14" height="13" viewBox="0 0 14 13" fill="none" xmlns="http://www.w3.org/2000/svg">
<path d="M14 5.6875C14 8.8293 10.8664 11.375 7 11.375C5.98555 11.375 5.02305 11.2 4.15352 10.8855C3.82813 11.1234 3.29766 11.4488 2.66875 11.7223C2.0125 12.0066 1.22227 12.25 0.437502 12.25C0.259768 12.25 0.101174 12.1434 0.0328147 11.9793C-0.0355447 11.8152 0.00273653 11.6293 0.125783 11.5035L0.133987 11.4953C0.14219 11.4871 0.153127 11.4762 0.169533 11.457C0.199612 11.4242 0.246096 11.3723 0.303518 11.3012C0.415627 11.1645 0.566018 10.9621 0.719143 10.7105C0.99258 10.2566 1.25235 9.66055 1.3043 8.99062C0.483987 8.06094 2.16585e-06 6.9207 2.16585e-06 5.6875C2.16585e-06 2.5457 3.1336 0 7 0C10.8664 0 14 2.5457 14 5.6875Z" fill="#CECECE"/>
</svg>
