<svg width="20" height="19" viewBox="0 0 20 19" fill="none" xmlns="http://www.w3.org/2000/svg">
<path fill-rule="evenodd" clip-rule="evenodd" d="M2.55365 18.6442C2.7293 18.6757 2.90732 18.7003 3.08691 18.7178C3.30516 18.7391 3.52647 18.75 3.75 18.75C5.0653 18.75 6.29447 18.3731 7.33317 17.7213C8.1069 17.9034 8.91679 18 9.75 18C15.072 18 19.5 14.0307 19.5 9C19.5 3.96934 15.072 0 9.75 0C4.42799 0 0 3.96934 0 9C0 11.4086 1.0246 13.5871 2.67371 15.1923C2.90571 15.4182 2.95107 15.6196 2.92822 15.7349C2.80254 16.3685 2.51687 16.9451 2.11357 17.4211C1.94016 17.6258 1.88927 17.9075 1.98008 18.1599C2.0709 18.4123 2.2896 18.597 2.55365 18.6442ZM6 7.875C5.37868 7.875 4.875 8.37868 4.875 9C4.875 9.62132 5.37868 10.125 6 10.125C6.62132 10.125 7.125 9.62132 7.125 9C7.125 8.37868 6.62132 7.875 6 7.875ZM8.625 9C8.625 8.37868 9.12868 7.875 9.75 7.875C10.3713 7.875 10.875 8.37868 10.875 9C10.875 9.62132 10.3713 10.125 9.75 10.125C9.12868 10.125 8.625 9.62132 8.625 9ZM13.5 7.875C12.8787 7.875 12.375 8.37868 12.375 9C12.375 9.62132 12.8787 10.125 13.5 10.125C14.1213 10.125 14.625 9.62132 14.625 9C14.625 8.37868 14.1213 7.875 13.5 7.875Z" fill="#0F172A"/>
</svg>
