<svg width="26" height="26" viewBox="0 0 26 26" fill="none" xmlns="http://www.w3.org/2000/svg">
<path d="M12.75 24.75C18.3401 24.75 23.0374 20.9276 24.3709 15.7539M12.75 24.75C7.1599 24.75 2.46256 20.9276 1.12906 15.7539M12.75 24.75C16.0637 24.75 18.75 19.3774 18.75 12.75C18.75 6.12258 16.0637 0.75 12.75 0.75M12.75 24.75C9.43629 24.75 6.75 19.3774 6.75 12.75C6.75 6.12258 9.43629 0.75 12.75 0.75M12.75 0.75C17.2369 0.75 21.1487 3.21259 23.2074 6.85993M12.75 0.75C8.26308 0.75 4.35132 3.21259 2.29257 6.85993M23.2074 6.85993C20.403 9.28385 16.7477 10.75 12.75 10.75C8.75229 10.75 5.09703 9.28385 2.29257 6.85993M23.2074 6.85993C24.1896 8.59991 24.75 10.6095 24.75 12.75C24.75 13.7873 24.6184 14.7939 24.3709 15.7539M24.3709 15.7539C20.9278 17.663 16.9659 18.75 12.75 18.75C8.53414 18.75 4.57216 17.663 1.12906 15.7539M1.12906 15.7539C0.881618 14.7939 0.75 13.7873 0.75 12.75C0.75 10.6095 1.31043 8.59991 2.29257 6.85993" stroke="white" stroke-width="1.5" stroke-linecap="round" stroke-linejoin="round"/>
</svg>
